<svg viewBox="0 0 15.33 9.56934" xmlns="http://www.w3.org/2000/svg" xmlns:xlink="http://www.w3.org/1999/xlink" width="15.330002" height="9.569336" fill="none" customFrame="#000000">
	<path id="Vector" d="M8.44968 9.56929C3.26313 9.56929 0.124401 5.97123 0 0L2.62198 0C2.70811 4.3923 4.69852 6.24874 6.22961 6.63152L6.22961 0L8.74633 0L8.74633 3.78944C10.22 3.62676 11.7702 1.90429 12.287 0L14.7654 0C14.5748 0.977187 14.1861 1.90499 13.6232 2.72622C13.0604 3.54746 12.3353 4.24473 11.4927 4.77507C12.4321 5.26126 13.2591 5.93918 13.9201 6.765C14.5811 7.59083 15.0614 8.54618 15.33 9.56929L12.6123 9.56929C12.0382 7.75112 10.6315 6.34444 8.73676 6.15305L8.73676 9.56929L8.44011 9.56929L8.44968 9.56929Z" fill="rgb(58,66,60)" fill-rule="nonzero" />
</svg>
